<svg width="148" height="40" viewBox="0 0 148 40" fill="none" xmlns="http://www.w3.org/2000/svg">
<rect width="148" height="40" rx="4" fill="#0A65FF"/>
<path d="M56.3118 25L57.152 22.4893H60.9801L61.8253 25H63.794L60.2045 14.8182H57.9276L54.343 25H56.3118ZM57.6491 21.0078L59.0263 16.9062H59.1058L60.483 21.0078H57.6491ZM67.657 25.1342C68.9695 25.1342 69.5611 24.3537 69.8445 23.7969H69.9538V25H71.7237V14.8182H69.919V18.6264H69.8445C69.571 18.0746 69.0092 17.2642 67.6619 17.2642C65.897 17.2642 64.5099 18.6463 64.5099 21.1918C64.5099 23.7074 65.8572 25.1342 67.657 25.1342ZM68.1591 23.6577C66.9709 23.6577 66.3445 22.6136 66.3445 21.1818C66.3445 19.7599 66.9609 18.7408 68.1591 18.7408C69.3175 18.7408 69.9538 19.7003 69.9538 21.1818C69.9538 22.6634 69.3075 23.6577 68.1591 23.6577ZM76.4753 25.1342C77.7878 25.1342 78.3794 24.3537 78.6628 23.7969H78.7722V25H80.5421V14.8182H78.7374V18.6264H78.6628C78.3894 18.0746 77.8276 17.2642 76.4803 17.2642C74.7154 17.2642 73.3283 18.6463 73.3283 21.1918C73.3283 23.7074 74.6756 25.1342 76.4753 25.1342ZM76.9775 23.6577C75.7892 23.6577 75.1628 22.6136 75.1628 21.1818C75.1628 19.7599 75.7793 18.7408 76.9775 18.7408C78.1358 18.7408 78.7722 19.7003 78.7722 21.1818C78.7722 22.6634 78.1259 23.6577 76.9775 23.6577ZM94.7273 18.2536C94.4141 15.9915 92.674 14.679 90.4169 14.679C87.7571 14.679 85.7536 16.6179 85.7536 19.9091C85.7536 23.1953 87.7322 25.1392 90.4169 25.1392C92.8381 25.1392 94.4439 23.5732 94.7273 21.6293L92.8679 21.6193C92.6342 22.8125 91.6598 23.4837 90.4418 23.4837C88.7912 23.4837 87.608 22.2457 87.608 19.9091C87.608 17.6122 88.7812 16.3345 90.4467 16.3345C91.6847 16.3345 92.6541 17.0355 92.8679 18.2536H94.7273ZM98.1365 14.8182H96.3368V25H98.1365V14.8182ZM102.185 25.1541C103.383 25.1541 104.099 24.5923 104.427 23.951H104.487V25H106.217V19.8892C106.217 17.8707 104.571 17.2642 103.114 17.2642C101.509 17.2642 100.276 17.9801 99.8778 19.3722L101.558 19.6108C101.737 19.0888 102.244 18.6413 103.124 18.6413C103.96 18.6413 104.417 19.0689 104.417 19.8196V19.8494C104.417 20.3665 103.875 20.3913 102.528 20.5355C101.046 20.6946 99.6293 21.1371 99.6293 22.8572C99.6293 24.3587 100.728 25.1541 102.185 25.1541ZM102.652 23.8317C101.901 23.8317 101.364 23.4886 101.364 22.8274C101.364 22.1364 101.966 21.848 102.771 21.7337C103.244 21.669 104.188 21.5497 104.422 21.3608V22.2607C104.422 23.1108 103.736 23.8317 102.652 23.8317ZM114.062 19.3821C113.813 18.0895 112.779 17.2642 110.989 17.2642C109.15 17.2642 107.897 18.169 107.902 19.581C107.897 20.6946 108.583 21.4304 110.05 21.7337L111.352 22.0071C112.053 22.1612 112.381 22.4446 112.381 22.8771C112.381 23.3991 111.815 23.7919 110.96 23.7919C110.134 23.7919 109.597 23.4339 109.443 22.7479L107.688 22.9169C107.912 24.3189 109.09 25.1491 110.964 25.1491C112.874 25.1491 114.221 24.1598 114.226 22.7131C114.221 21.6243 113.52 20.9581 112.078 20.6449L110.776 20.3665C110 20.1925 109.692 19.924 109.697 19.4815C109.692 18.9645 110.263 18.6065 111.014 18.6065C111.844 18.6065 112.282 19.0589 112.421 19.5611L114.062 19.3821ZM121.745 19.3821C121.497 18.0895 120.463 17.2642 118.673 17.2642C116.833 17.2642 115.581 18.169 115.586 19.581C115.581 20.6946 116.267 21.4304 117.733 21.7337L119.036 22.0071C119.737 22.1612 120.065 22.4446 120.065 22.8771C120.065 23.3991 119.498 23.7919 118.643 23.7919C117.818 23.7919 117.281 23.4339 117.127 22.7479L115.372 22.9169C115.596 24.3189 116.774 25.1491 118.648 25.1491C120.557 25.1491 121.904 24.1598 121.909 22.7131C121.904 21.6243 121.203 20.9581 119.762 20.6449L118.459 20.3665C117.684 20.1925 117.375 19.924 117.38 19.4815C117.375 18.9645 117.947 18.6065 118.698 18.6065C119.528 18.6065 119.966 19.0589 120.105 19.5611L121.745 19.3821Z" fill="white"/>
<path d="M36 19H40V21H36V25H34V21H30V19H34V15H36V19ZM35 30C32.3478 30 29.8043 28.9464 27.9289 27.0711C26.0536 25.1957 25 22.6522 25 20C25 17.3478 26.0536 14.8043 27.9289 12.9289C29.8043 11.0536 32.3478 10 35 10C37.6522 10 40.1957 11.0536 42.0711 12.9289C43.9464 14.8043 45 17.3478 45 20C45 22.6522 43.9464 25.1957 42.0711 27.0711C40.1957 28.9464 37.6522 30 35 30ZM35 28C37.1217 28 39.1566 27.1571 40.6569 25.6569C42.1571 24.1566 43 22.1217 43 20C43 17.8783 42.1571 15.8434 40.6569 14.3431C39.1566 12.8429 37.1217 12 35 12C32.8783 12 30.8434 12.8429 29.3431 14.3431C27.8429 15.8434 27 17.8783 27 20C27 22.1217 27.8429 24.1566 29.3431 25.6569C30.8434 27.1571 32.8783 28 35 28Z" fill="white"/>
</svg>
