<svg width="148" height="40" viewBox="0 0 148 40" fill="none" xmlns="http://www.w3.org/2000/svg">
<rect width="148" height="40" rx="4" fill="#0A65FF"/>
<path d="M48.3118 25L49.152 22.4893H52.9801L53.8253 25H55.794L52.2045 14.8182H49.9276L46.343 25H48.3118ZM49.6491 21.0078L51.0263 16.9062H51.1058L52.483 21.0078H49.6491ZM59.657 25.1342C60.9695 25.1342 61.5611 24.3537 61.8445 23.7969H61.9538V25H63.7237V14.8182H61.919V18.6264H61.8445C61.571 18.0746 61.0092 17.2642 59.6619 17.2642C57.897 17.2642 56.5099 18.6463 56.5099 21.1918C56.5099 23.7074 57.8572 25.1342 59.657 25.1342ZM60.1591 23.6577C58.9709 23.6577 58.3445 22.6136 58.3445 21.1818C58.3445 19.7599 58.9609 18.7408 60.1591 18.7408C61.3175 18.7408 61.9538 19.7003 61.9538 21.1818C61.9538 22.6634 61.3075 23.6577 60.1591 23.6577ZM68.4753 25.1342C69.7878 25.1342 70.3794 24.3537 70.6628 23.7969H70.7722V25H72.5421V14.8182H70.7374V18.6264H70.6628C70.3894 18.0746 69.8276 17.2642 68.4803 17.2642C66.7154 17.2642 65.3283 18.6463 65.3283 21.1918C65.3283 23.7074 66.6756 25.1342 68.4753 25.1342ZM68.9775 23.6577C67.7892 23.6577 67.1628 22.6136 67.1628 21.1818C67.1628 19.7599 67.7793 18.7408 68.9775 18.7408C70.1358 18.7408 70.7722 19.7003 70.7722 21.1818C70.7722 22.6634 70.1259 23.6577 68.9775 23.6577ZM83.5455 17.6172H85.3203C85.2855 15.897 83.8189 14.679 81.6513 14.679C79.5135 14.679 77.9077 15.8821 77.9126 17.6818C77.9126 19.1435 78.9517 19.9837 80.6271 20.4162L81.7855 20.7145C82.8842 20.9929 83.6101 21.3359 83.6151 22.1264C83.6101 22.9964 82.7848 23.5781 81.5817 23.5781C80.4283 23.5781 79.5334 23.0611 79.4588 21.9922H77.6442C77.7188 24.0156 79.2251 25.1541 81.5966 25.1541C84.0376 25.1541 85.4545 23.9361 85.4595 22.1413C85.4545 20.3764 83.9979 19.571 82.4666 19.2081L81.5121 18.9695C80.6768 18.7706 79.772 18.4176 79.782 17.5675C79.7869 16.8018 80.473 16.2401 81.6264 16.2401C82.7251 16.2401 83.451 16.7521 83.5455 17.6172ZM90.8375 17.3636H89.3311V15.5341H87.5314V17.3636H86.4476V18.7557H87.5314V23.0014C87.5215 24.4382 88.5655 25.1442 89.9178 25.1044C90.4299 25.0895 90.7828 24.9901 90.9767 24.9254L90.6735 23.5185C90.574 23.5433 90.3702 23.5881 90.1465 23.5881C89.6941 23.5881 89.3311 23.429 89.3311 22.7031V18.7557H90.8375V17.3636ZM97.2099 21.7884C97.2099 22.9517 96.3796 23.5284 95.5842 23.5284C94.7191 23.5284 94.1424 22.9169 94.1424 21.9474V17.3636H92.3427V22.2259C92.3427 24.0604 93.3867 25.0994 94.8881 25.0994C96.0316 25.0994 96.837 24.4979 97.185 23.6428H97.2646V25H99.0096V17.3636H97.2099V21.7884ZM103.694 25.1342C105.007 25.1342 105.598 24.3537 105.882 23.7969H105.991V25H107.761V14.8182H105.956V18.6264H105.882C105.608 18.0746 105.046 17.2642 103.699 17.2642C101.934 17.2642 100.547 18.6463 100.547 21.1918C100.547 23.7074 101.894 25.1342 103.694 25.1342ZM104.196 23.6577C103.008 23.6577 102.382 22.6136 102.382 21.1818C102.382 19.7599 102.998 18.7408 104.196 18.7408C105.355 18.7408 105.991 19.7003 105.991 21.1818C105.991 22.6634 105.345 23.6577 104.196 23.6577ZM113.059 25.1491C114.839 25.1491 116.062 24.2791 116.38 22.9517L114.7 22.7628C114.456 23.4091 113.86 23.7472 113.084 23.7472C111.921 23.7472 111.15 22.9815 111.135 21.674H116.455V21.1222C116.455 18.4425 114.844 17.2642 112.965 17.2642C110.777 17.2642 109.35 18.87 109.35 21.2266C109.35 23.6229 110.757 25.1491 113.059 25.1491ZM111.14 20.4609C111.195 19.4865 111.916 18.6662 112.99 18.6662C114.024 18.6662 114.72 19.4219 114.73 20.4609H111.14ZM119.777 20.5256C119.777 19.4219 120.443 18.7855 121.393 18.7855C122.323 18.7855 122.879 19.397 122.879 20.4162V25H124.679V20.1378C124.684 18.3082 123.64 17.2642 122.064 17.2642C120.921 17.2642 120.135 17.8111 119.787 18.6612H119.698V17.3636H117.977V25H119.777V20.5256ZM130.322 17.3636H128.816V15.5341H127.016V17.3636H125.932V18.7557H127.016V23.0014C127.006 24.4382 128.05 25.1442 129.402 25.1044C129.914 25.0895 130.267 24.9901 130.461 24.9254L130.158 23.5185C130.058 23.5433 129.855 23.5881 129.631 23.5881C129.178 23.5881 128.816 23.429 128.816 22.7031V18.7557H130.322V17.3636Z" fill="white"/>
<path d="M28 19H32V21H28V25H26V21H22V19H26V15H28V19ZM27 30C24.3478 30 21.8043 28.9464 19.9289 27.0711C18.0536 25.1957 17 22.6522 17 20C17 17.3478 18.0536 14.8043 19.9289 12.9289C21.8043 11.0536 24.3478 10 27 10C29.6522 10 32.1957 11.0536 34.0711 12.9289C35.9464 14.8043 37 17.3478 37 20C37 22.6522 35.9464 25.1957 34.0711 27.0711C32.1957 28.9464 29.6522 30 27 30ZM27 28C29.1217 28 31.1566 27.1571 32.6569 25.6569C34.1571 24.1566 35 22.1217 35 20C35 17.8783 34.1571 15.8434 32.6569 14.3431C31.1566 12.8429 29.1217 12 27 12C24.8783 12 22.8434 12.8429 21.3431 14.3431C19.8429 15.8434 19 17.8783 19 20C19 22.1217 19.8429 24.1566 21.3431 25.6569C22.8434 27.1571 24.8783 28 27 28Z" fill="white"/>
</svg>
