<svg width="148" height="40" viewBox="0 0 148 40" fill="none" xmlns="http://www.w3.org/2000/svg">
<rect width="148" height="40" rx="4" fill="#0A65FF"/>
<path d="M47.3118 25L48.152 22.4893H51.9801L52.8253 25H54.794L51.2045 14.8182H48.9276L45.343 25H47.3118ZM48.6491 21.0078L50.0263 16.9062H50.1058L51.483 21.0078H48.6491ZM58.657 25.1342C59.9695 25.1342 60.5611 24.3537 60.8445 23.7969H60.9538V25H62.7237V14.8182H60.919V18.6264H60.8445C60.571 18.0746 60.0092 17.2642 58.6619 17.2642C56.897 17.2642 55.5099 18.6463 55.5099 21.1918C55.5099 23.7074 56.8572 25.1342 58.657 25.1342ZM59.1591 23.6577C57.9709 23.6577 57.3445 22.6136 57.3445 21.1818C57.3445 19.7599 57.9609 18.7408 59.1591 18.7408C60.3175 18.7408 60.9538 19.7003 60.9538 21.1818C60.9538 22.6634 60.3075 23.6577 59.1591 23.6577ZM67.4753 25.1342C68.7878 25.1342 69.3794 24.3537 69.6628 23.7969H69.7722V25H71.5421V14.8182H69.7374V18.6264H69.6628C69.3894 18.0746 68.8276 17.2642 67.4803 17.2642C65.7154 17.2642 64.3283 18.6463 64.3283 21.1918C64.3283 23.7074 65.6756 25.1342 67.4753 25.1342ZM67.9775 23.6577C66.7892 23.6577 66.1628 22.6136 66.1628 21.1818C66.1628 19.7599 66.7793 18.7408 67.9775 18.7408C69.1358 18.7408 69.7722 19.7003 69.7722 21.1818C69.7722 22.6634 69.1259 23.6577 67.9775 23.6577ZM76.5646 16.3643H79.7116V25H81.5412V16.3643H84.6882V14.8182H76.5646V16.3643ZM88.448 25.1491C90.2278 25.1491 91.4508 24.2791 91.769 22.9517L90.0886 22.7628C89.845 23.4091 89.2484 23.7472 88.4728 23.7472C87.3095 23.7472 86.5389 22.9815 86.524 21.674H91.8436V21.1222C91.8436 18.4425 90.2328 17.2642 88.3535 17.2642C86.166 17.2642 84.7392 18.87 84.7392 21.2266C84.7392 23.6229 86.1461 25.1491 88.448 25.1491ZM86.5289 20.4609C86.5836 19.4865 87.3045 18.6662 88.3784 18.6662C89.4125 18.6662 90.1085 19.4219 90.1184 20.4609H86.5289ZM95.5636 25.1541C96.7617 25.1541 97.4776 24.5923 97.8058 23.951H97.8654V25H99.5955V19.8892C99.5955 17.8707 97.9499 17.2642 96.4933 17.2642C94.8874 17.2642 93.6545 17.9801 93.2567 19.3722L94.9371 19.6108C95.1161 19.0888 95.6232 18.6413 96.5032 18.6413C97.3384 18.6413 97.7958 19.0689 97.7958 19.8196V19.8494C97.7958 20.3665 97.2539 20.3913 95.9066 20.5355C94.4251 20.6946 93.0082 21.1371 93.0082 22.8572C93.0082 24.3587 94.1069 25.1541 95.5636 25.1541ZM96.0309 23.8317C95.2802 23.8317 94.7433 23.4886 94.7433 22.8274C94.7433 22.1364 95.3448 21.848 96.1502 21.7337C96.6225 21.669 97.5671 21.5497 97.8008 21.3608V22.2607C97.8008 23.1108 97.1147 23.8317 96.0309 23.8317ZM104.736 25.1491C106.655 25.1491 107.878 24.0107 108.007 22.3899H106.287C106.133 23.2102 105.542 23.6825 104.751 23.6825C103.627 23.6825 102.902 22.7429 102.902 21.1818C102.902 19.6406 103.642 18.7159 104.751 18.7159C105.616 18.7159 106.148 19.2727 106.287 20.0085H108.007C107.883 18.353 106.591 17.2642 104.726 17.2642C102.489 17.2642 101.077 18.88 101.077 21.2116C101.077 23.5234 102.454 25.1491 104.736 25.1491ZM111.285 20.5256C111.285 19.4219 111.971 18.7855 112.936 18.7855C113.88 18.7855 114.437 19.3871 114.437 20.4162V25H116.237V20.1378C116.237 18.2933 115.193 17.2642 113.607 17.2642C112.433 17.2642 111.688 17.7962 111.335 18.6612H111.245V14.8182H109.485V25H111.285V20.5256ZM121.452 25.1491C123.232 25.1491 124.455 24.2791 124.773 22.9517L123.093 22.7628C122.849 23.4091 122.252 23.7472 121.477 23.7472C120.313 23.7472 119.543 22.9815 119.528 21.674H124.847V21.1222C124.847 18.4425 123.237 17.2642 121.357 17.2642C119.17 17.2642 117.743 18.87 117.743 21.2266C117.743 23.6229 119.15 25.1491 121.452 25.1491ZM119.533 20.4609C119.588 19.4865 120.308 18.6662 121.382 18.6662C122.416 18.6662 123.112 19.4219 123.122 20.4609H119.533ZM126.37 25H128.17V20.5107C128.17 19.5412 128.901 18.8551 129.89 18.8551C130.193 18.8551 130.571 18.9098 130.725 18.9595V17.304C130.561 17.2741 130.278 17.2543 130.079 17.2543C129.204 17.2543 128.473 17.7514 128.195 18.6364H128.115V17.3636H126.37V25Z" fill="white"/>
<path d="M27 19H31V21H27V25H25V21H21V19H25V15H27V19ZM26 30C23.3478 30 20.8043 28.9464 18.9289 27.0711C17.0536 25.1957 16 22.6522 16 20C16 17.3478 17.0536 14.8043 18.9289 12.9289C20.8043 11.0536 23.3478 10 26 10C28.6522 10 31.1957 11.0536 33.0711 12.9289C34.9464 14.8043 36 17.3478 36 20C36 22.6522 34.9464 25.1957 33.0711 27.0711C31.1957 28.9464 28.6522 30 26 30ZM26 28C28.1217 28 30.1566 27.1571 31.6569 25.6569C33.1571 24.1566 34 22.1217 34 20C34 17.8783 33.1571 15.8434 31.6569 14.3431C30.1566 12.8429 28.1217 12 26 12C23.8783 12 21.8434 12.8429 20.3431 14.3431C18.8429 15.8434 18 17.8783 18 20C18 22.1217 18.8429 24.1566 20.3431 25.6569C21.8434 27.1571 23.8783 28 26 28Z" fill="white"/>
</svg>
