<svg width="28" height="28" viewBox="0 0 28 28" fill="none" xmlns="http://www.w3.org/2000/svg">
<g clip-path="url(#clip0)">
<path d="M26.0024 9.67444C25.8892 8.82328 25.8732 7.35726 26.6638 6.86499C26.678 6.85597 26.6885 6.84293 26.7008 6.83173C27.3472 6.625 27.7945 6.33487 27.4434 5.94447L17.9088 3.07159L2.47008 5.21806C2.47008 5.21806 0.70216 5.47075 0.860092 8.21745C0.945827 9.71238 1.41469 10.4466 1.82473 10.8079L0.557848 11.1897C0.206218 11.5801 0.653443 11.8703 1.29988 12.0767C1.31216 12.0882 1.32253 12.1012 1.3369 12.1102C2.12698 12.6029 2.11177 14.0687 1.99812 14.9201C-0.84023 15.726 0.178643 15.9887 0.178643 15.9887L0.801264 16.1393C0.363315 16.5351 -0.0716257 17.2856 0.0098474 18.7089C0.167863 21.4551 1.62001 21.6446 1.62001 21.6446L11.723 24.9284L26.9723 21.2348C26.9723 21.2348 27.9915 20.9717 25.1524 20.1657C25.0382 19.3157 25.0223 17.85 25.8143 17.3561C25.8288 17.3473 25.8394 17.334 25.8512 17.323C26.4976 17.1163 26.9445 16.8264 26.5933 16.436L25.9305 16.2358C26.3725 15.9693 27.0365 15.2726 27.1406 13.463C27.2123 12.2183 26.8876 11.4893 26.5117 11.0601L27.8218 10.743C27.8219 10.7435 28.8411 10.4805 26.0024 9.67444ZM13.2473 9.63926L15.8117 9.11224L24.4778 7.33135L25.7689 7.06579C25.3563 7.82086 25.3736 8.85419 25.4419 9.51835C25.4569 9.66859 25.4741 9.8058 25.4908 9.91009L24.0776 10.2615L13.1395 12.9825L13.2473 9.63926ZM2.23193 12.3118L3.52288 12.5774L11.8454 14.2883L12.5725 14.4372L14.7529 14.8853L14.8604 18.2286L3.61848 15.4317L2.51019 15.1563C2.52649 15.0518 2.5437 14.9148 2.55933 14.7641C2.62718 14.1005 2.64481 13.0669 2.23193 12.3118ZM1.73039 8.08525C1.71477 7.35467 1.84496 6.8263 2.10809 6.55773C2.27555 6.38626 2.47318 6.35058 2.60871 6.35058C2.68033 6.35058 2.73188 6.36053 2.73539 6.36053L9.38752 8.52922L12.7064 9.61127L12.5975 12.9779L3.28682 10.3676L2.79547 10.23C2.77743 10.2249 2.75294 10.2214 2.73406 10.2205C2.6957 10.2178 1.77518 10.133 1.73039 8.08525ZM11.7471 23.4698L1.94531 20.7218C1.92718 20.7165 1.90295 20.713 1.88406 20.7121C1.84504 20.7095 0.924101 20.6249 0.879562 18.5776C0.863685 17.8461 0.994544 17.3182 1.25718 17.0494C1.42506 16.8779 1.62276 16.8423 1.75805 16.8423C1.82983 16.8423 1.88122 16.8519 1.88498 16.8519C1.88498 16.8519 1.8854 16.8519 1.88498 16.8519L11.8553 20.1031L11.7471 23.4698ZM24.591 20.0098C24.6064 20.1605 24.6237 20.2975 24.6404 20.4019L12.2889 23.4746L12.3968 20.1313L15.0375 19.5884L15.4275 19.6827L16.8891 19.2077L23.6268 17.8231L24.9185 17.5574C24.5055 18.3124 24.5226 19.3461 24.591 20.0098ZM25.2713 15.4661C25.2489 15.4666 25.2264 15.4696 25.2053 15.4763L24.2737 15.7371L15.4037 18.2242L15.2953 14.8576L18.2054 13.9084L25.252 11.6103C25.2529 11.6099 25.6226 11.5278 25.8941 11.8038C26.1568 12.0723 26.2871 12.6007 26.2718 13.3313C26.2258 15.3784 25.3049 15.4635 25.2713 15.4661Z" fill="white"/>
</g>
<defs>
<clipPath id="clip0">
<rect width="28" height="28" fill="white"/>
</clipPath>
</defs>
</svg>
