<svg width="39" height="40" viewBox="0 0 39 40" fill="none" xmlns="http://www.w3.org/2000/svg">
<rect width="39" height="40" rx="4" fill="#EF0303" fill-opacity="0.7"/>
<path d="M27.1872 11.4737H22.9091V11.4316C22.9091 10.6316 22.2674 10 21.4545 10H18.5455C17.7326 10 17.0909 10.6316 17.0909 11.4316V11.4737H12.8128C12.3636 11.4737 12 11.8316 12 12.2737V13.0737C12 13.5158 12.3636 13.8737 12.8128 13.8737H27.1872C27.6364 13.8737 28 13.5158 28 13.0737V12.2737C28 11.8316 27.6364 11.4737 27.1872 11.4737Z" fill="white"/>
<path d="M26.1177 14.9684H13.8824C13.6471 14.9684 13.476 15.1579 13.4974 15.3895L14.0963 27.5789C14.1605 28.9263 15.2942 30 16.6632 30H23.3156C24.6846 30 25.8183 28.9474 25.8824 27.5789L26.4814 15.3895C26.5241 15.1789 26.3316 14.9684 26.1177 14.9684ZM18.6739 26.7368C18.6739 27.1158 18.3744 27.4105 17.9894 27.4105C17.6044 27.4105 17.3049 27.1158 17.3049 26.7368V18.2526C17.3049 17.8737 17.6044 17.5789 17.9894 17.5789C18.3744 17.5789 18.6739 17.8737 18.6739 18.2526V26.7368ZM22.6953 26.7368C22.6953 27.1158 22.3958 27.4105 22.0108 27.4105C21.6258 27.4105 21.3263 27.1158 21.3263 26.7368V18.2526C21.3263 17.8737 21.6258 17.5789 22.0108 17.5789C22.3958 17.5789 22.6953 17.8737 22.6953 18.2526V26.7368Z" fill="white"/>
</svg>
