<svg width="27" height="27" viewBox="0 0 27 27" fill="none" xmlns="http://www.w3.org/2000/svg">
<path d="M25.904 15.625C25.904 14.9345 25.904 1.48405 25.904 0.791043C25.904 0.354176 25.5499 0 25.113 0H1.88796C1.45109 0 1.09691 0.354176 1.09691 0.791043V15.625C0.475101 15.7306 0 16.2729 0 16.9244V19.3163C0 20.0433 0.591437 20.6347 1.31841 20.6347H4.25539L2.44269 25.9537C2.26734 26.4685 2.65189 27 3.19154 27H6.61729C6.95586 27 7.25645 26.7843 7.36614 26.4642L9.35288 20.6348H17.648L19.6348 26.4642C19.7444 26.7843 20.045 27 20.3836 27H23.8094C24.3489 27 24.7336 26.4686 24.5582 25.9537L22.7455 20.6348H25.6825C26.4095 20.6348 27.0009 20.0434 27.0009 19.3164V16.9245C27.001 16.273 26.5259 15.7307 25.904 15.625ZM2.679 1.58209H24.322V11.892H17.8248C17.0979 11.892 16.5064 12.4835 16.5064 13.2104V15.606H2.679V1.58209ZM24.322 13.4741V15.606H18.0885V13.4741H24.322ZM6.0509 25.4179H4.2969L5.92713 20.6348H7.68114L6.0509 25.4179ZM20.95 25.4179L19.3198 20.6348H21.0738L22.7041 25.4179H20.95ZM25.4189 19.0527C24.7539 19.0527 2.24873 19.0527 1.58209 19.0527V17.1881H25.4189V19.0527Z" fill="white"/>
<path d="M5.79837 5.86926H21.2026C21.6395 5.86926 21.9937 5.51508 21.9937 5.07821C21.9937 4.64135 21.6395 4.28717 21.2026 4.28717H5.79837C5.3615 4.28717 5.00732 4.64135 5.00732 5.07821C5.00732 5.51508 5.3615 5.86926 5.79837 5.86926Z" fill="#253274"/>
<path d="M15.2382 8.64923H5.79837C5.3615 8.64923 5.00732 9.00341 5.00732 9.44027C5.00732 9.87714 5.3615 10.2313 5.79837 10.2313H15.2382C15.675 10.2313 16.0292 9.87714 16.0292 9.44027C16.0292 9.00341 15.675 8.64923 15.2382 8.64923Z" fill="white"/>
</svg>
