<svg width="10" height="10" viewBox="0 0 10 10" fill="none" xmlns="http://www.w3.org/2000/svg">
<path d="M9.89211 3.24061C9.68352 2.70948 9.30102 1.94314 8.66331 1.30845C8.02786 0.675955 7.26964 0.304394 6.74546 0.104043C6.17 -0.115897 5.51607 0.0227349 5.07955 0.457206L3.54561 1.98396C3.09091 2.43651 2.95985 3.13288 3.21948 3.71676C3.29999 3.89786 3.38755 4.07498 3.4811 4.24612L0.114414 7.61278C0.0411522 7.68605 0 7.7854 0 7.88901V9.60776C0 9.8235 0.174882 9.99838 0.390623 9.99838H2.10937C2.32511 9.99838 2.49999 9.8235 2.49999 9.60776V8.90463L3.20311 8.90461C3.41885 8.90461 3.59374 8.72973 3.59374 8.51399V7.81089H4.29686C4.5126 7.81089 4.68748 7.63601 4.68748 7.42026C4.68748 7.20452 4.5126 7.02964 4.29686 7.02964H3.20311C2.98737 7.02964 2.81249 7.20452 2.81249 7.42026V8.12337L2.10937 8.12339C1.89363 8.12339 1.71874 8.29827 1.71874 8.51401V9.21713H0.781247V8.05081L4.2452 4.58688C4.37246 4.45961 4.39631 4.2619 4.30297 4.10803C4.1676 3.88491 4.04325 3.64647 3.93338 3.39934C3.8045 3.10948 3.87016 2.76321 4.09678 2.53765L5.6307 1.01091C5.8497 0.792966 6.17779 0.723455 6.4666 0.833806C6.92015 1.00716 7.57382 1.32626 8.11221 1.86216C8.65391 2.4013 8.9837 3.06464 9.16494 3.52616C9.27805 3.8142 9.20932 4.14145 8.98985 4.35989L7.43739 5.90508C7.21132 6.13005 6.8739 6.19584 6.57771 6.07265C6.33343 5.97105 6.09685 5.85035 5.87459 5.71392C5.69074 5.60107 5.45019 5.65865 5.33734 5.84252C5.22449 6.02638 5.28205 6.26693 5.46592 6.37978C5.72279 6.53744 5.99591 6.67679 6.27767 6.79398C6.86638 7.03888 7.53792 6.90726 7.9885 6.4588L9.54096 4.91363C9.98129 4.47537 10.1191 3.81868 9.89211 3.24061Z" fill="black" fill-opacity="0.9"/>
</svg>
