<svg width="264" height="63" viewBox="0 0 264 63" fill="none" xmlns="http://www.w3.org/2000/svg">
<path d="M73.5117 31.5918C70.6172 30.7598 68.5078 29.7402 67.1836 28.5332C65.8711 27.3145 65.2148 25.8145 65.2148 24.0332C65.2148 22.0176 66.0176 20.3535 67.623 19.041C69.2402 17.7168 71.3379 17.0547 73.916 17.0547C75.6738 17.0547 77.2383 17.3945 78.6094 18.0742C79.9922 18.7539 81.0586 19.6914 81.8086 20.8867C82.5703 22.082 82.9512 23.3887 82.9512 24.8066H79.5586C79.5586 23.2598 79.0664 22.0469 78.082 21.168C77.0977 20.2773 75.709 19.832 73.916 19.832C72.252 19.832 70.9512 20.2012 70.0137 20.9395C69.0879 21.666 68.625 22.6797 68.625 23.9805C68.625 25.0234 69.0645 25.9082 69.9434 26.6348C70.834 27.3496 72.3398 28.0059 74.4609 28.6035C76.5938 29.2012 78.2578 29.8633 79.4531 30.5898C80.6602 31.3047 81.5508 32.1426 82.125 33.1035C82.7109 34.0645 83.0039 35.1953 83.0039 36.4961C83.0039 38.5703 82.1953 40.2344 80.5781 41.4883C78.9609 42.7305 76.7988 43.3516 74.0918 43.3516C72.334 43.3516 70.6934 43.0176 69.1699 42.3496C67.6465 41.6699 66.4688 40.7441 65.6367 39.5723C64.8164 38.4004 64.4062 37.0703 64.4062 35.582H67.7988C67.7988 37.1289 68.3672 38.3535 69.5039 39.2559C70.6523 40.1465 72.1816 40.5918 74.0918 40.5918C75.873 40.5918 77.2383 40.2285 78.1875 39.502C79.1367 38.7754 79.6113 37.7852 79.6113 36.5312C79.6113 35.2773 79.1719 34.3105 78.293 33.6309C77.4141 32.9395 75.8203 32.2598 73.5117 31.5918ZM94.4648 40.6973C95.625 40.6973 96.6387 40.3457 97.5059 39.6426C98.373 38.9395 98.8535 38.0605 98.9473 37.0059H102.023C101.965 38.0957 101.59 39.1328 100.898 40.1172C100.207 41.1016 99.2812 41.8867 98.1211 42.4727C96.9727 43.0586 95.7539 43.3516 94.4648 43.3516C91.875 43.3516 89.8125 42.4902 88.2773 40.7676C86.7539 39.0332 85.9922 36.666 85.9922 33.666V33.1211C85.9922 31.2695 86.332 29.623 87.0117 28.1816C87.6914 26.7402 88.6641 25.6211 89.9297 24.8242C91.207 24.0273 92.7129 23.6289 94.4473 23.6289C96.5801 23.6289 98.3496 24.2676 99.7559 25.5449C101.174 26.8223 101.93 28.4805 102.023 30.5195H98.9473C98.8535 29.2891 98.3848 28.2812 97.541 27.4961C96.709 26.6992 95.6777 26.3008 94.4473 26.3008C92.7949 26.3008 91.5117 26.8984 90.5977 28.0938C89.6953 29.2773 89.2441 30.9941 89.2441 33.2441V33.8594C89.2441 36.0508 89.6953 37.7383 90.5977 38.9219C91.5 40.1055 92.7891 40.6973 94.4648 40.6973ZM108.932 26.2832C110.373 24.5137 112.248 23.6289 114.557 23.6289C118.576 23.6289 120.604 25.8965 120.639 30.4316V43H117.387V30.4141C117.375 29.043 117.059 28.0293 116.438 27.373C115.828 26.7168 114.873 26.3887 113.572 26.3887C112.518 26.3887 111.592 26.6699 110.795 27.2324C109.998 27.7949 109.377 28.5332 108.932 29.4473V43H105.68V16H108.932V26.2832ZM124.646 33.3145C124.646 31.4512 125.01 29.7754 125.736 28.2871C126.475 26.7988 127.494 25.6504 128.795 24.8418C130.107 24.0332 131.602 23.6289 133.277 23.6289C135.867 23.6289 137.959 24.5254 139.553 26.3184C141.158 28.1113 141.961 30.4961 141.961 33.4727V33.7012C141.961 35.5527 141.604 37.2168 140.889 38.6934C140.186 40.1582 139.172 41.3008 137.848 42.1211C136.535 42.9414 135.023 43.3516 133.312 43.3516C130.734 43.3516 128.643 42.4551 127.037 40.6621C125.443 38.8691 124.646 36.4961 124.646 33.543V33.3145ZM127.916 33.7012C127.916 35.8105 128.402 37.5039 129.375 38.7812C130.359 40.0586 131.672 40.6973 133.312 40.6973C134.965 40.6973 136.277 40.0527 137.25 38.7637C138.223 37.4629 138.709 35.6465 138.709 33.3145C138.709 31.2285 138.211 29.541 137.215 28.252C136.23 26.9512 134.918 26.3008 133.277 26.3008C131.672 26.3008 130.377 26.9395 129.393 28.2168C128.408 29.4941 127.916 31.3223 127.916 33.7012ZM145.178 33.3145C145.178 31.4512 145.541 29.7754 146.268 28.2871C147.006 26.7988 148.025 25.6504 149.326 24.8418C150.639 24.0332 152.133 23.6289 153.809 23.6289C156.398 23.6289 158.49 24.5254 160.084 26.3184C161.689 28.1113 162.492 30.4961 162.492 33.4727V33.7012C162.492 35.5527 162.135 37.2168 161.42 38.6934C160.717 40.1582 159.703 41.3008 158.379 42.1211C157.066 42.9414 155.555 43.3516 153.844 43.3516C151.266 43.3516 149.174 42.4551 147.568 40.6621C145.975 38.8691 145.178 36.4961 145.178 33.543V33.3145ZM148.447 33.7012C148.447 35.8105 148.934 37.5039 149.906 38.7812C150.891 40.0586 152.203 40.6973 153.844 40.6973C155.496 40.6973 156.809 40.0527 157.781 38.7637C158.754 37.4629 159.24 35.6465 159.24 33.3145C159.24 31.2285 158.742 29.541 157.746 28.252C156.762 26.9512 155.449 26.3008 153.809 26.3008C152.203 26.3008 150.908 26.9395 149.924 28.2168C148.939 29.4941 148.447 31.3223 148.447 33.7012ZM170.104 43H166.852V16H170.104V43ZM184.764 43V17.4062H191.988C194.215 17.4062 196.184 17.8984 197.895 18.8828C199.605 19.8672 200.924 21.2676 201.85 23.084C202.787 24.9004 203.262 26.9863 203.273 29.3418V30.9766C203.273 33.3906 202.805 35.5059 201.867 37.3223C200.941 39.1387 199.611 40.5332 197.877 41.5059C196.154 42.4785 194.145 42.9766 191.848 43H184.764ZM188.139 20.1836V40.2402H191.689C194.291 40.2402 196.312 39.4316 197.754 37.8145C199.207 36.1973 199.934 33.8945 199.934 30.9062V29.4121C199.934 26.5059 199.248 24.25 197.877 22.6445C196.518 21.0273 194.584 20.207 192.076 20.1836H188.139ZM211.412 43H208.16V23.9805H211.412V43ZM207.896 18.9355C207.896 18.4082 208.055 17.9629 208.371 17.5996C208.699 17.2363 209.18 17.0547 209.812 17.0547C210.445 17.0547 210.926 17.2363 211.254 17.5996C211.582 17.9629 211.746 18.4082 211.746 18.9355C211.746 19.4629 211.582 19.9023 211.254 20.2539C210.926 20.6055 210.445 20.7812 209.812 20.7812C209.18 20.7812 208.699 20.6055 208.371 20.2539C208.055 19.9023 207.896 19.4629 207.896 18.9355ZM228.375 43C228.188 42.625 228.035 41.957 227.918 40.9961C226.406 42.5664 224.602 43.3516 222.504 43.3516C220.629 43.3516 219.088 42.8242 217.881 41.7695C216.686 40.7031 216.088 39.3555 216.088 37.7266C216.088 35.7461 216.838 34.2109 218.338 33.1211C219.85 32.0195 221.971 31.4688 224.701 31.4688H227.865V29.9746C227.865 28.8379 227.525 27.9355 226.846 27.2676C226.166 26.5879 225.164 26.248 223.84 26.248C222.68 26.248 221.707 26.541 220.922 27.127C220.137 27.7129 219.744 28.4219 219.744 29.2539H216.475C216.475 28.3047 216.809 27.3906 217.477 26.5117C218.156 25.6211 219.07 24.918 220.219 24.4023C221.379 23.8867 222.65 23.6289 224.033 23.6289C226.225 23.6289 227.941 24.1797 229.184 25.2812C230.426 26.3711 231.07 27.877 231.117 29.7988V38.5527C231.117 40.2988 231.34 41.6875 231.785 42.7188V43H228.375ZM222.979 40.5215C223.998 40.5215 224.965 40.2578 225.879 39.7305C226.793 39.2031 227.455 38.5176 227.865 37.6738V33.7715H225.316C221.332 33.7715 219.34 34.9375 219.34 37.2695C219.34 38.2891 219.68 39.0859 220.359 39.6602C221.039 40.2344 221.912 40.5215 222.979 40.5215ZM245.408 26.8984C244.916 26.8164 244.383 26.7754 243.809 26.7754C241.676 26.7754 240.229 27.6836 239.467 29.5V43H236.215V23.9805H239.379L239.432 26.1777C240.498 24.4785 242.01 23.6289 243.967 23.6289C244.6 23.6289 245.08 23.7109 245.408 23.875V26.8984ZM254.953 38.2363L259.383 23.9805H262.863L255.217 45.9355C254.033 49.0996 252.152 50.6816 249.574 50.6816L248.959 50.6289L247.746 50.4004V47.7637L248.625 47.834C249.727 47.834 250.582 47.6113 251.191 47.166C251.812 46.7207 252.322 45.9062 252.721 44.7227L253.441 42.7891L246.656 23.9805H250.207L254.953 38.2363Z" fill="#253274"/>
<path opacity="0.7" d="M46.6238 18.886C46.6238 23.5478 43.9389 27.815 39.4849 31.1103C33.9804 35.1859 25.7686 37.7719 16.5989 37.7719C10.7809 37.7951 5.0567 36.7099 3.05176e-05 34.6251V4.57275C0.0190772 4.09983 0.22304 3.64055 0.588249 3.24835C0.953457 2.85614 1.46486 2.54711 2.06298 2.35723C6.62175 0.784773 11.6121 -0.0209006 16.6611 0.000412073C33.2793 0.0215409 46.6238 8.43218 46.6238 18.886Z" fill="#7189FF"/>
<path opacity="0.302" d="M46.6238 43.3333C46.6238 53.7879 33.277 62.1989 16.6576 62.2189C11.6098 62.2399 6.6206 61.4341 2.06295 59.8618C1.46469 59.672 0.953177 59.3631 0.587941 58.9708C0.222705 58.5786 0.018821 58.1192 0 57.6463V34.6241C5.05667 36.709 10.7809 37.7942 16.5989 37.771C25.7685 37.771 33.98 35.1853 39.4849 31.1096C43.9389 34.4043 46.6238 38.6715 46.6238 43.3333Z" fill="#7189FF"/>
</svg>
