<svg width="10" height="10" viewBox="0 0 10 10" fill="none" xmlns="http://www.w3.org/2000/svg">
<path d="M4.2254 4.64881V0.774801C4.2254 0.347282 4.57269 0 5.00021 0C5.42773 0 5.77501 0.347282 5.77501 0.774801V4.64881C5.77501 5.07633 5.42773 5.42361 5.00021 5.42361C4.57269 5.42361 4.2254 5.07633 4.2254 4.64881ZM8.07143 1.13607C7.82043 0.937333 7.45422 0.980949 7.25548 1.23236C7.05674 1.48418 7.09995 1.84957 7.35177 2.04872C8.27346 2.77579 8.80179 3.86454 8.80179 5.03642C8.80179 7.13245 7.09624 8.838 5.00062 8.838C2.90458 8.838 1.19903 7.13245 1.19903 5.03642C1.19903 3.86495 1.72695 2.77661 2.64782 2.04995C2.89964 1.85121 2.94285 1.48582 2.74411 1.23359C2.54536 0.981772 2.18039 0.938979 1.92775 1.13731C0.725836 2.08575 0.0366211 3.50697 0.0366211 5.03642C0.0366211 7.77353 2.26351 10 5.00021 10C7.73691 10 9.96379 7.77311 9.96379 5.03642C9.96379 3.50615 9.27375 2.08493 8.07143 1.13607Z" fill="#030104" fill-opacity="0.8"/>
</svg>
