<svg width="28" height="28" viewBox="0 0 28 28" fill="none" xmlns="http://www.w3.org/2000/svg">
<g clip-path="url(#clip0)">
<path d="M5.60033 0C3.28433 0.000492173 1.40045 1.88437 1.40045 4.20037C1.40045 6.51637 3.28433 8.39981 5.60033 8.39981C7.91633 8.39981 9.80021 6.51593 9.80021 4.19993C9.80021 1.88387 7.91633 0 5.60033 0ZM5.60033 7.00029C4.05387 7.00029 2.80041 5.74683 2.80041 4.20037C2.80041 2.65391 4.05387 1.40045 5.60033 1.40045C7.14679 1.40045 8.40025 2.65391 8.40025 4.20037C8.40025 5.74683 7.14685 7.00029 5.60033 7.00029Z" fill="white"/>
<path d="M26.5998 6.99979H12.6002C11.8269 6.99979 11.2002 7.62649 11.2002 8.39975V9.46886L12.6002 10.1688V8.39975H26.5998V19.5989H12.6002V17.9348L11.2002 17.5854V19.5989C11.2002 20.3722 11.8269 20.9989 12.6002 20.9989H18.3643L14.8 26.939C14.6002 27.2698 14.7085 27.7005 15.0407 27.8989C15.3688 28.1 15.8009 27.9917 16.0006 27.6581L18.9 22.8254V27.2983C18.9 27.6851 19.2131 27.9983 19.6 27.9983C19.9868 27.9983 20.2999 27.6851 20.2999 27.2983V22.8254L23.1997 27.6576C23.3309 27.8765 23.5632 27.9978 23.7998 27.9978C23.9231 27.9978 24.0472 27.9666 24.1596 27.898C24.4919 27.6996 24.5997 27.2689 24.4004 26.9381L20.8361 20.998H26.5997C27.373 20.998 27.9997 20.3713 27.9997 19.5981V8.39975C27.9997 7.62649 27.373 6.99979 26.5998 6.99979Z" fill="white"/>
<path d="M24.4722 11.007C24.3668 10.635 23.9799 10.4162 23.6071 10.5273L14.9688 12.9954C14.868 12.8979 14.7551 12.8125 14.6263 12.7476L9.02649 9.9477C8.83192 9.85063 8.61771 9.79977 8.40023 9.79977H2.80039C2.12376 9.79977 1.54415 10.2837 1.42285 10.9492L0.0228945 18.6484C-0.0513143 19.0568 0.0593153 19.4772 0.325307 19.7959C0.5913 20.1146 0.985148 20.299 1.40049 20.299H2.29504L2.80509 26.7094C2.86295 27.4373 3.47007 27.9982 4.2004 27.9982H7.00032C7.71381 27.9982 8.313 27.462 8.39186 26.7532L9.61497 15.7463L13.6608 16.7575C13.7728 16.7855 13.8867 16.799 14.0001 16.799C14.309 16.799 14.6128 16.6968 14.8616 16.5027C15.2013 16.2376 15.4001 15.8302 15.4001 15.3991V14.3272L23.9925 11.8721C24.3645 11.7667 24.5791 11.3784 24.4722 11.007ZM14.0001 15.3996L8.40023 13.9996L7.00027 26.5988H4.20035L3.58809 18.899H1.40043L2.80039 11.1997H4.90033V15.4584C4.90033 15.8452 5.21346 16.1584 5.60031 16.1584C5.98716 16.1584 6.30029 15.8452 6.30029 15.4584V11.1997H8.40023L14.0001 13.9996V15.3996Z" fill="white"/>
</g>
<defs>
<clipPath id="clip0">
<rect width="28" height="28" fill="white"/>
</clipPath>
</defs>
</svg>
