<svg width="57" height="57" viewBox="0 0 57 57" fill="none" xmlns="http://www.w3.org/2000/svg">
<path d="M0 28.5C0 34.1368 1.6715 39.6469 4.80311 44.3337C7.93473 49.0205 12.3858 52.6735 17.5935 54.8306C22.8012 56.9876 28.5316 57.552 34.0601 56.4524C39.5885 55.3527 44.6667 52.6383 48.6525 48.6525C52.6383 44.6667 55.3527 39.5885 56.4524 34.0601C57.552 28.5316 56.9876 22.8012 54.8306 17.5935C52.6735 12.3858 49.0205 7.93473 44.3337 4.80311C39.6469 1.6715 34.1368 0 28.5 0C20.9413 0 13.6922 3.00267 8.34746 8.34746C3.00267 13.6922 0 20.9413 0 28.5H0Z" fill="white" fill-opacity="0.7"/>
<path d="M40.9686 37.5666V42.8302C40.9686 43.0436 40.8844 43.2484 40.7343 43.4001C40.5843 43.5519 40.3804 43.6383 40.167 43.6406H16.0311C15.8177 43.6383 15.6138 43.5519 15.4637 43.4001C15.3136 43.2484 15.2295 43.0436 15.2295 42.8302V37.5666C15.2295 33.3183 20.9918 29.8716 28.099 29.8716C35.2062 29.8716 40.9686 33.3183 40.9686 37.5666Z" stroke="black" stroke-width="2" stroke-miterlimit="10" stroke-linecap="round"/>
<path d="M28.0992 24.3675C31.257 24.3675 33.817 21.9032 33.817 18.8634C33.817 15.8236 31.257 13.3594 28.0992 13.3594C24.9413 13.3594 22.3813 15.8236 22.3813 18.8634C22.3813 21.9032 24.9413 24.3675 28.0992 24.3675Z" stroke="black" stroke-width="2" stroke-miterlimit="10" stroke-linecap="round"/>
</svg>
