<svg width="28" height="28" viewBox="0 0 28 28" fill="none" xmlns="http://www.w3.org/2000/svg">
<g clip-path="url(#clip0)">
<path d="M25.7579 18.0473C25.7579 16.7267 24.817 15.6219 23.5704 15.3678V12.4143C23.5704 12.1453 23.4385 11.8934 23.2173 11.7401C22.9962 11.5868 22.7139 11.5517 22.462 11.6462L20.8963 12.2334C19.8682 11.1645 18.6185 10.3594 17.2489 9.86518C18.5947 8.86799 19.4688 7.26867 19.4688 5.46887C19.4688 2.45328 17.0155 0 13.9999 0C10.9843 0 8.53102 2.45328 8.53102 5.46887C8.53102 7.26867 9.40505 8.86799 10.7508 9.86518C9.38126 10.3595 8.13157 11.1645 7.10343 12.2334L5.53774 11.6462C5.28585 11.5517 5.00354 11.5868 4.78244 11.7401C4.56128 11.8934 4.42937 12.1453 4.42937 12.4143V15.3678C3.18274 15.6219 2.24182 16.7267 2.24182 18.0473C2.24182 19.3678 3.18274 20.4726 4.42937 20.7267V23.8989C4.42937 24.2409 4.64151 24.547 4.96165 24.6671L13.7118 27.9484C13.8964 28.0172 14.1034 28.0172 14.2879 27.9484L23.0381 24.6671C23.3582 24.547 23.5703 24.2409 23.5703 23.8989V20.7267C24.817 20.4726 25.7579 19.3678 25.7579 18.0473ZM10.1717 5.46887C10.1717 3.35799 11.889 1.64066 13.9999 1.64066C16.1108 1.64066 17.8281 3.35799 17.8281 5.46887C17.8281 7.57974 16.1108 9.29707 13.9999 9.29707C11.889 9.29707 10.1717 7.57974 10.1717 5.46887ZM13.9999 10.9377C15.9218 10.9377 17.7575 11.6323 19.1898 12.8733L13.9999 14.8195L8.80999 12.8733C10.2423 11.6323 12.078 10.9377 13.9999 10.9377ZM3.88248 18.0473C3.88248 17.4442 4.37315 16.9535 4.97625 16.9535H5.52314V19.141H4.97625C4.37315 19.141 3.88248 18.6504 3.88248 18.0473ZM6.07003 20.7542C6.69332 20.6271 7.1638 20.0747 7.1638 19.4145V16.68C7.1638 16.0198 6.69332 15.4674 6.07003 15.3403V13.5981L13.1796 16.2641V25.9966L6.07003 23.3305V20.7542ZM14.8202 25.9965V16.2641L21.9297 13.5981V15.3403C21.3065 15.4674 20.836 16.0198 20.836 16.68V19.4145C20.836 20.0747 21.3065 20.6271 21.9297 20.7542V23.3305L14.8202 25.9965ZM23.0235 19.141H22.4766V16.9535H23.0235C23.6266 16.9535 24.1173 17.4442 24.1173 18.0473C24.1173 18.6504 23.6267 19.141 23.0235 19.141Z" fill="white"/>
</g>
<defs>
<clipPath id="clip0">
<rect width="28" height="28" fill="white"/>
</clipPath>
</defs>
</svg>
